<svg id="visual" viewBox="0 0 1000 300" width="1000" height="300" xmlns="http://www.w3.org/2000/svg" xmlns:xlink="http://www.w3.org/1999/xlink" version="1.1"><path d="M0 132L23.8 133.5C47.7 135 95.3 138 143 143.3C190.7 148.7 238.3 156.3 286 154.7C333.7 153 381.3 142 428.8 135.8C476.3 129.7 523.7 128.3 571.2 132.8C618.7 137.3 666.3 147.7 714 146.7C761.7 145.7 809.3 133.3 857 129.3C904.7 125.3 952.3 129.7 976.2 131.8L1000 134L1000 301L976.2 301C952.3 301 904.7 301 857 301C809.3 301 761.7 301 714 301C666.3 301 618.7 301 571.2 301C523.7 301 476.3 301 428.8 301C381.3 301 333.7 301 286 301C238.3 301 190.7 301 143 301C95.3 301 47.7 301 23.8 301L0 301Z" fill="#0066FF" stroke-linecap="round" stroke-linejoin="miter"></path></svg>