<?xml version="1.0" encoding="utf-8"?>
<!-- Svg Vector Icons : http://www.onlinewebfonts.com/icon -->
<!DOCTYPE svg PUBLIC "-//W3C//DTD SVG 1.1//EN" "http://www.w3.org/Graphics/SVG/1.1/DTD/svg11.dtd">
<svg version="1.1" xmlns="http://www.w3.org/2000/svg" xmlns:xlink="http://www.w3.org/1999/xlink" x="0px" y="0px" viewBox="0 0 1000 1000" enable-background="new 0 0 1000 1000" xml:space="preserve">
<metadata> Svg Vector Icons : http://www.onlinewebfonts.com/icon </metadata>
<g><g><path d="M948.3,809.3H160.2l177.7-238.8c5.5-7.4,15.7-9.6,23.7-5.2l69.2,37.9c33.8,18.5,76.1,7.9,97.2-24.4L701,313.9c3.6-5.6,11-7.3,16.7-3.8l14.1,8.6c5.6,3.4,12.6,3.7,18.5,0.7c5.9-3,9.8-8.7,10.4-15.3l15.9-171.3c0.7-7.3-2.9-14.3-9.1-18.1c-6.2-3.8-14.1-3.7-20.2,0.3l-144.6,93.2c-5.5,3.6-8.8,9.7-8.8,16.3c0.1,6.6,3.6,12.6,9.2,16.1l11.4,6.9c2.9,1.7,4.9,4.6,5.6,7.8c0.7,3.3,0.1,6.7-1.7,9.5l-150.1,230c-5.3,8.1-15.9,10.8-24.4,6.1L376.6,464c-32.3-17.7-72.6-8.8-94.6,20.7L93.4,738.3V149c0-23-18.7-41.7-41.7-41.7C28.7,107.3,10,126,10,149v702c0,23,18.7,41.7,41.7,41.7h896.6c23,0,41.7-18.7,41.7-41.7C990,828,971.3,809.3,948.3,809.3z"/></g><g></g><g></g><g></g><g></g><g></g><g></g><g></g><g></g><g></g><g></g><g></g><g></g><g></g><g></g><g></g></g>
</svg>