<svg xmlns="http://www.w3.org/2000/svg" viewBox="0 0 399.16 391.57"><defs><style>.cls-1{fill:#fff;}.cls-2{fill:#31c5f4;stroke:#55ace0;stroke-miterlimit:10;stroke-width:2px;}</style></defs><g id="Ticks"><rect class="cls-1" y="174.32" width="53.93" height="180.69"/><rect class="cls-1" x="86.31" y="75.32" width="53.93" height="186.8"/><rect class="cls-1" x="172.61" y="148.68" width="53.93" height="187.45"/><polygon class="cls-1" points="312.85 17.09 258.92 17.09 258.92 238.3 285.88 238.3 312.85 238.3 312.85 17.09"/><rect class="cls-1" x="345.22" y="110.3" width="53.93" height="180.44"/><line class="cls-1" x1="285.88" y1="277.53" x2="285.88" y2="238.3"/><line class="cls-1" x1="372.19" y1="110.3" x2="372.19" y2="68.54"/></g><g id="Lines"><line class="cls-1" x1="26.97" y1="174.32" x2="26.97" y2="127.7"/><path class="cls-2" d="M332,333.75" transform="translate(-49.93 -49.48)"/><line class="cls-1" x1="26.97" y1="355.01" x2="26.97" y2="376.4"/><line class="cls-1" x1="115.73" y1="75.32" x2="115.73" y2="19.66"/><line class="cls-1" x1="113.27" y1="262.13" x2="113.27" y2="303.93"/><line class="cls-1" x1="199.58" y1="148.68" x2="200" y2="97.75"/><line class="cls-1" x1="285.88" y1="17.09" x2="285.88"/><line class="cls-1" x1="372.19" y1="290.74" x2="372.19" y2="391.57"/><line class="cls-1" x1="200.07" y1="336.13" x2="200.07" y2="349.03"/></g></svg>